<svg version="1.1" xmlns="http://www.w3.org/2000/svg" width="9000" height="4000"><defs><clipPath id="HPfkTHeBiSQB"><path fill="none" stroke="none" d="M 0.5 0.5 L 9000.5 0.5 L 9000.5 4000.5 L 0.5 4000.5 L 0.5 0.5 Z M 0.5 0.5 L 9000.5 0.5 L 9000.5 4000.5 L 0.5 4000.5 L 0.5 0.5 Z" clip-rule="evenodd"/></clipPath><clipPath id="kwPNxtZfVwzl"><path fill="none" stroke="none" d="M 0.5 0.5 L 9000.5 0.5 L 9000.5 4000.5 L 0.5 4000.5 L 0.5 0.5 Z"/></clipPath><clipPath id="ThRLTLGkLOhW"><path fill="none" stroke="none" d="M 0.5 0.5 L 9000.5 0.5 L 9000.5 4000.5 L 0.5 4000.5 L 0.5 0.5 Z"/></clipPath><clipPath id="sEyaTPVLTPke"><path fill="none" stroke="none" d="M 0.5 0.5 L 9000.5 0.5 L 9000.5 4000.5 L 0.5 4000.5 L 0.5 0.5 Z"/></clipPath><clipPath id="DGGbarQxqbiJ"><path fill="none" stroke="none" d="M 0.5 0.5 L 9000.5 0.5 L 9000.5 4000.5 L 0.5 4000.5 L 0.5 0.5 Z"/></clipPath><clipPath id="adaxdITwSQpx"><path fill="none" stroke="none" d="M 0.5 0.5 L 9000.5 0.5 L 9000.5 4000.5 L 0.5 4000.5 L 0.5 0.5 Z"/></clipPath><clipPath id="vTKHWqVmTzAl"><path fill="none" stroke="none" d="M 0.5 0.5 L 9000.5 0.5 L 9000.5 4000.5 L 0.5 4000.5 L 0.5 0.5 Z"/></clipPath><clipPath id="HQRNEsCaXxup"><path fill="none" stroke="none" d="M 0.5 0.5 L 9000.5 0.5 L 9000.5 4000.5 L 0.5 4000.5 L 0.5 0.5 Z"/></clipPath><clipPath id="OrnznowTtTfO"><path fill="none" stroke="none" d="M 0.5 0.5 L 9000.5 0.5 L 9000.5 4000.5 L 0.5 4000.5 L 0.5 0.5 Z"/></clipPath><clipPath id="xXasdRxRohFT"><path fill="none" stroke="none" d="M 0.5 0.5 L 9000.5 0.5 L 9000.5 4000.5 L 0.5 4000.5 L 0.5 0.5 Z"/></clipPath></defs><path fill="#ffffff" stroke="none" paint-order="stroke" d="M 0.5 0.5 L 9000.5 0.5 L 9000.5 4000.5 L 0.5 4000.5 L 0.5 0.5 Z" fill-rule="nonzero" clip-path="url(#HPfkTHeBiSQB)"/><path fill="#ffffff" stroke="none" paint-order="stroke" d="M 0.5 0.5 L 9000.5 0.5 L 9000.5 4000.5 L 0.5 4000.5 L 0.5 0.5 Z"/><path fill="none" stroke="#e5e5e5" paint-order="fill" d="M 0.5 0.5 L 8999.5 0.5 L 8999.5 3999.5 L 0.5 3999.5 L 0.5 0.5 Z" stroke-linejoin="bevel" stroke-miterlimit="10"/><path fill="rgb(128 128 128 / 0.2)" stroke="rgb(51 51 51)" paint-order="fill" d="M 1028 1000.5 A 27.5 27.5 0 0 1 973 1000.5 A 27.5 27.5 0 0 1 1028 1000.5" fill-rule="nonzero" clip-path="url(#kwPNxtZfVwzl)" stroke-linejoin="bevel" stroke-miterlimit="10"/><path fill="rgb(128 128 128 / 0.2)" stroke="rgb(51 51 51)" paint-order="fill" d="M 2028 1000.5 A 27.5 27.5 0 0 1 1973 1000.5 A 27.5 27.5 0 0 1 2028 1000.5" fill-rule="nonzero" clip-path="url(#kwPNxtZfVwzl)" stroke-linejoin="bevel" stroke-miterlimit="10"/><path fill="rgb(128 128 128 / 0.2)" stroke="rgb(51 51 51)" paint-order="fill" d="M 3028 1000.5 A 27.5 27.5 0 0 1 2973 1000.5 A 27.5 27.5 0 0 1 3028 1000.5" fill-rule="nonzero" clip-path="url(#kwPNxtZfVwzl)" stroke-linejoin="bevel" stroke-miterlimit="10"/><path fill="rgb(128 128 128 / 0.2)" stroke="rgb(51 51 51)" paint-order="fill" d="M 4028 1000.5 A 27.5 27.5 0 0 1 3973 1000.5 A 27.5 27.5 0 0 1 4028 1000.5" fill-rule="nonzero" clip-path="url(#kwPNxtZfVwzl)" stroke-linejoin="bevel" stroke-miterlimit="10"/><path fill="rgb(128 128 128 / 0.2)" stroke="rgb(51 51 51)" paint-order="fill" d="M 5028 1000.5 A 27.5 27.5 0 0 1 4973 1000.5 A 27.5 27.5 0 0 1 5028 1000.5" fill-rule="nonzero" clip-path="url(#kwPNxtZfVwzl)" stroke-linejoin="bevel" stroke-miterlimit="10"/><path fill="rgb(128 128 128 / 0.2)" stroke="rgb(51 51 51)" paint-order="fill" d="M 6028 1000.5 A 27.5 27.5 0 0 1 5973 1000.5 A 27.5 27.5 0 0 1 6028 1000.5" fill-rule="nonzero" clip-path="url(#kwPNxtZfVwzl)" stroke-linejoin="bevel" stroke-miterlimit="10"/><path fill="rgb(128 128 128 / 0.2)" stroke="rgb(51 51 51)" paint-order="fill" d="M 7028 1000.5 A 27.5 27.5 0 0 1 6973 1000.5 A 27.5 27.5 0 0 1 7028 1000.5" fill-rule="nonzero" clip-path="url(#kwPNxtZfVwzl)" stroke-linejoin="bevel" stroke-miterlimit="10"/><path fill="rgb(128 128 128 / 0.2)" stroke="rgb(51 51 51)" paint-order="fill" d="M 8028 1000.5 A 27.5 27.5 0 0 1 7973 1000.5 A 27.5 27.5 0 0 1 8028 1000.5" fill-rule="nonzero" clip-path="url(#kwPNxtZfVwzl)" stroke-linejoin="bevel" stroke-miterlimit="10"/><path fill="rgb(128 128 128 / 0.2)" stroke="rgb(51 51 51)" paint-order="fill" d="M 1028 2000.5 A 27.5 27.5 0 0 1 973 2000.5 A 27.5 27.5 0 0 1 1028 2000.5" fill-rule="nonzero" clip-path="url(#kwPNxtZfVwzl)" stroke-linejoin="bevel" stroke-miterlimit="10"/><path fill="rgb(128 128 128 / 0.2)" stroke="rgb(51 51 51)" paint-order="fill" d="M 2028 2000.5 A 27.5 27.5 0 0 1 1973 2000.5 A 27.5 27.5 0 0 1 2028 2000.5" fill-rule="nonzero" clip-path="url(#kwPNxtZfVwzl)" stroke-linejoin="bevel" stroke-miterlimit="10"/><path fill="rgb(128 128 128 / 0.2)" stroke="rgb(51 51 51)" paint-order="fill" d="M 3028 2000.5 A 27.5 27.5 0 0 1 2973 2000.5 A 27.5 27.5 0 0 1 3028 2000.5" fill-rule="nonzero" clip-path="url(#kwPNxtZfVwzl)" stroke-linejoin="bevel" stroke-miterlimit="10"/><path fill="rgb(128 128 128 / 0.2)" stroke="rgb(51 51 51)" paint-order="fill" d="M 4028 2000.5 A 27.5 27.5 0 0 1 3973 2000.5 A 27.5 27.5 0 0 1 4028 2000.5" fill-rule="nonzero" clip-path="url(#kwPNxtZfVwzl)" stroke-linejoin="bevel" stroke-miterlimit="10"/><path fill="rgb(128 128 128 / 0.2)" stroke="rgb(51 51 51)" paint-order="fill" d="M 5028 2000.5 A 27.5 27.5 0 0 1 4973 2000.5 A 27.5 27.5 0 0 1 5028 2000.5" fill-rule="nonzero" clip-path="url(#kwPNxtZfVwzl)" stroke-linejoin="bevel" stroke-miterlimit="10"/><path fill="rgb(128 128 128 / 0.2)" stroke="rgb(51 51 51)" paint-order="fill" d="M 6028 2000.5 A 27.5 27.5 0 0 1 5973 2000.5 A 27.5 27.5 0 0 1 6028 2000.5" fill-rule="nonzero" clip-path="url(#kwPNxtZfVwzl)" stroke-linejoin="bevel" stroke-miterlimit="10"/><path fill="rgb(128 128 128 / 0.2)" stroke="rgb(51 51 51)" paint-order="fill" d="M 7028 2000.5 A 27.5 27.5 0 0 1 6973 2000.5 A 27.5 27.5 0 0 1 7028 2000.5" fill-rule="nonzero" clip-path="url(#kwPNxtZfVwzl)" stroke-linejoin="bevel" stroke-miterlimit="10"/><path fill="rgb(128 128 128 / 0.2)" stroke="rgb(51 51 51)" paint-order="fill" d="M 8028 2000.5 A 27.5 27.5 0 0 1 7973 2000.5 A 27.5 27.5 0 0 1 8028 2000.5" fill-rule="nonzero" clip-path="url(#kwPNxtZfVwzl)" stroke-linejoin="bevel" stroke-miterlimit="10"/><path fill="rgb(128 128 128 / 0.2)" stroke="rgb(51 51 51)" paint-order="fill" d="M 1028 3000.5 A 27.5 27.5 0 0 1 973 3000.5 A 27.5 27.5 0 0 1 1028 3000.5" fill-rule="nonzero" clip-path="url(#kwPNxtZfVwzl)" stroke-linejoin="bevel" stroke-miterlimit="10"/><path fill="rgb(128 128 128 / 0.2)" stroke="rgb(51 51 51)" paint-order="fill" d="M 2028 3000.5 A 27.5 27.5 0 0 1 1973 3000.5 A 27.5 27.5 0 0 1 2028 3000.5" fill-rule="nonzero" clip-path="url(#kwPNxtZfVwzl)" stroke-linejoin="bevel" stroke-miterlimit="10"/><path fill="rgb(128 128 128 / 0.2)" stroke="rgb(51 51 51)" paint-order="fill" d="M 3028 3000.5 A 27.5 27.5 0 0 1 2973 3000.5 A 27.5 27.5 0 0 1 3028 3000.5" fill-rule="nonzero" clip-path="url(#kwPNxtZfVwzl)" stroke-linejoin="bevel" stroke-miterlimit="10"/><path fill="rgb(128 128 128 / 0.2)" stroke="rgb(51 51 51)" paint-order="fill" d="M 4028 3000.5 A 27.5 27.5 0 0 1 3973 3000.5 A 27.5 27.5 0 0 1 4028 3000.5" fill-rule="nonzero" clip-path="url(#kwPNxtZfVwzl)" stroke-linejoin="bevel" stroke-miterlimit="10"/><path fill="rgb(128 128 128 / 0.2)" stroke="rgb(51 51 51)" paint-order="fill" d="M 5028 3000.5 A 27.5 27.5 0 0 1 4973 3000.5 A 27.5 27.5 0 0 1 5028 3000.5" fill-rule="nonzero" clip-path="url(#kwPNxtZfVwzl)" stroke-linejoin="bevel" stroke-miterlimit="10"/><path fill="rgb(128 128 128 / 0.2)" stroke="rgb(51 51 51)" paint-order="fill" d="M 6028 3000.5 A 27.5 27.5 0 0 1 5973 3000.5 A 27.5 27.5 0 0 1 6028 3000.5" fill-rule="nonzero" clip-path="url(#kwPNxtZfVwzl)" stroke-linejoin="bevel" stroke-miterlimit="10"/><path fill="rgb(128 128 128 / 0.2)" stroke="rgb(51 51 51)" paint-order="fill" d="M 7028 3000.5 A 27.5 27.5 0 0 1 6973 3000.5 A 27.5 27.5 0 0 1 7028 3000.5" fill-rule="nonzero" clip-path="url(#kwPNxtZfVwzl)" stroke-linejoin="bevel" stroke-miterlimit="10"/><path fill="rgb(128 128 128 / 0.2)" stroke="rgb(51 51 51)" paint-order="fill" d="M 8028 3000.5 A 27.5 27.5 0 0 1 7973 3000.5 A 27.5 27.5 0 0 1 8028 3000.5" fill-rule="nonzero" clip-path="url(#kwPNxtZfVwzl)" stroke-linejoin="bevel" stroke-miterlimit="10"/><path fill="none" stroke="rgb(51 51 51)" paint-order="fill" d="M 1010.5 1000.5 A 10 10 0 0 1 990.5 1000.5 A 10 10 0 0 1 1010.5 1000.5" stroke-linejoin="bevel" stroke-miterlimit="10" clip-path="url(#ThRLTLGkLOhW)"/><path fill="none" stroke="rgb(51 51 51)" paint-order="fill" d="M 2010.5 1000.5 A 10 10 0 0 1 1990.5 1000.5 A 10 10 0 0 1 2010.5 1000.5" stroke-linejoin="bevel" stroke-miterlimit="10" clip-path="url(#ThRLTLGkLOhW)"/><path fill="none" stroke="rgb(51 51 51)" paint-order="fill" d="M 3010.5 1000.5 A 10 10 0 0 1 2990.5 1000.5 A 10 10 0 0 1 3010.5 1000.5" stroke-linejoin="bevel" stroke-miterlimit="10" clip-path="url(#ThRLTLGkLOhW)"/><path fill="none" stroke="rgb(51 51 51)" paint-order="fill" d="M 4010.5 1000.5 A 10 10 0 0 1 3990.5 1000.5 A 10 10 0 0 1 4010.5 1000.5" stroke-linejoin="bevel" stroke-miterlimit="10" clip-path="url(#ThRLTLGkLOhW)"/><path fill="none" stroke="rgb(51 51 51)" paint-order="fill" d="M 5010.5 1000.5 A 10 10 0 0 1 4990.5 1000.5 A 10 10 0 0 1 5010.5 1000.5" stroke-linejoin="bevel" stroke-miterlimit="10" clip-path="url(#ThRLTLGkLOhW)"/><path fill="none" stroke="rgb(51 51 51)" paint-order="fill" d="M 6010.5 1000.5 A 10 10 0 0 1 5990.5 1000.5 A 10 10 0 0 1 6010.5 1000.5" stroke-linejoin="bevel" stroke-miterlimit="10" clip-path="url(#ThRLTLGkLOhW)"/><path fill="none" stroke="rgb(51 51 51)" paint-order="fill" d="M 7010.5 1000.5 A 10 10 0 0 1 6990.5 1000.5 A 10 10 0 0 1 7010.5 1000.5" stroke-linejoin="bevel" stroke-miterlimit="10" clip-path="url(#ThRLTLGkLOhW)"/><path fill="none" stroke="rgb(51 51 51)" paint-order="fill" d="M 8010.5 1000.5 A 10 10 0 0 1 7990.5 1000.5 A 10 10 0 0 1 8010.5 1000.5" stroke-linejoin="bevel" stroke-miterlimit="10" clip-path="url(#ThRLTLGkLOhW)"/><path fill="none" stroke="rgb(51 51 51)" paint-order="fill" d="M 1010.5 2000.5 A 10 10 0 0 1 990.5 2000.5 A 10 10 0 0 1 1010.5 2000.5" stroke-linejoin="bevel" stroke-miterlimit="10" clip-path="url(#ThRLTLGkLOhW)"/><path fill="none" stroke="rgb(51 51 51)" paint-order="fill" d="M 2010.5 2000.5 A 10 10 0 0 1 1990.5 2000.5 A 10 10 0 0 1 2010.5 2000.5" stroke-linejoin="bevel" stroke-miterlimit="10" clip-path="url(#ThRLTLGkLOhW)"/><path fill="none" stroke="rgb(51 51 51)" paint-order="fill" d="M 3010.5 2000.5 A 10 10 0 0 1 2990.5 2000.5 A 10 10 0 0 1 3010.5 2000.5" stroke-linejoin="bevel" stroke-miterlimit="10" clip-path="url(#ThRLTLGkLOhW)"/><path fill="none" stroke="rgb(51 51 51)" paint-order="fill" d="M 4010.5 2000.5 A 10 10 0 0 1 3990.5 2000.5 A 10 10 0 0 1 4010.5 2000.5" stroke-linejoin="bevel" stroke-miterlimit="10" clip-path="url(#ThRLTLGkLOhW)"/><path fill="none" stroke="rgb(51 51 51)" paint-order="fill" d="M 5010.5 2000.5 A 10 10 0 0 1 4990.5 2000.5 A 10 10 0 0 1 5010.5 2000.5" stroke-linejoin="bevel" stroke-miterlimit="10" clip-path="url(#ThRLTLGkLOhW)"/><path fill="none" stroke="rgb(51 51 51)" paint-order="fill" d="M 6010.5 2000.5 A 10 10 0 0 1 5990.5 2000.5 A 10 10 0 0 1 6010.5 2000.5" stroke-linejoin="bevel" stroke-miterlimit="10" clip-path="url(#ThRLTLGkLOhW)"/><path fill="none" stroke="rgb(51 51 51)" paint-order="fill" d="M 7010.5 2000.5 A 10 10 0 0 1 6990.5 2000.5 A 10 10 0 0 1 7010.5 2000.5" stroke-linejoin="bevel" stroke-miterlimit="10" clip-path="url(#ThRLTLGkLOhW)"/><path fill="none" stroke="rgb(51 51 51)" paint-order="fill" d="M 8010.5 2000.5 A 10 10 0 0 1 7990.5 2000.5 A 10 10 0 0 1 8010.5 2000.5" stroke-linejoin="bevel" stroke-miterlimit="10" clip-path="url(#ThRLTLGkLOhW)"/><path fill="none" stroke="rgb(51 51 51)" paint-order="fill" d="M 1010.5 3000.5 A 10 10 0 0 1 990.5 3000.5 A 10 10 0 0 1 1010.5 3000.5" stroke-linejoin="bevel" stroke-miterlimit="10" clip-path="url(#ThRLTLGkLOhW)"/><path fill="none" stroke="rgb(51 51 51)" paint-order="fill" d="M 2010.5 3000.5 A 10 10 0 0 1 1990.5 3000.5 A 10 10 0 0 1 2010.5 3000.5" stroke-linejoin="bevel" stroke-miterlimit="10" clip-path="url(#ThRLTLGkLOhW)"/><path fill="none" stroke="rgb(51 51 51)" paint-order="fill" d="M 3010.5 3000.5 A 10 10 0 0 1 2990.5 3000.5 A 10 10 0 0 1 3010.5 3000.5" stroke-linejoin="bevel" stroke-miterlimit="10" clip-path="url(#ThRLTLGkLOhW)"/><path fill="none" stroke="rgb(51 51 51)" paint-order="fill" d="M 4010.5 3000.5 A 10 10 0 0 1 3990.5 3000.5 A 10 10 0 0 1 4010.5 3000.5" stroke-linejoin="bevel" stroke-miterlimit="10" clip-path="url(#ThRLTLGkLOhW)"/><path fill="none" stroke="rgb(51 51 51)" paint-order="fill" d="M 5010.5 3000.5 A 10 10 0 0 1 4990.5 3000.5 A 10 10 0 0 1 5010.5 3000.5" stroke-linejoin="bevel" stroke-miterlimit="10" clip-path="url(#ThRLTLGkLOhW)"/><path fill="none" stroke="rgb(51 51 51)" paint-order="fill" d="M 6010.5 3000.5 A 10 10 0 0 1 5990.5 3000.5 A 10 10 0 0 1 6010.5 3000.5" stroke-linejoin="bevel" stroke-miterlimit="10" clip-path="url(#ThRLTLGkLOhW)"/><path fill="none" stroke="rgb(51 51 51)" paint-order="fill" d="M 7010.5 3000.5 A 10 10 0 0 1 6990.5 3000.5 A 10 10 0 0 1 7010.5 3000.5" stroke-linejoin="bevel" stroke-miterlimit="10" clip-path="url(#ThRLTLGkLOhW)"/><path fill="none" stroke="rgb(51 51 51)" paint-order="fill" d="M 8010.5 3000.5 A 10 10 0 0 1 7990.5 3000.5 A 10 10 0 0 1 8010.5 3000.5" stroke-linejoin="bevel" stroke-miterlimit="10" clip-path="url(#ThRLTLGkLOhW)"/><path fill="none" stroke="rgb(51 51 51)" paint-order="fill" d="M 1105.5 845.5 A 15 15 0 0 1 1075.5 845.5 A 15 15 0 0 1 1105.5 845.5" stroke-linejoin="bevel" stroke-miterlimit="10" clip-path="url(#sEyaTPVLTPke)"/><path fill="none" stroke="rgb(51 51 51)" paint-order="fill" d="M 2105.5 845.5 A 15 15 0 0 1 2075.5 845.5 A 15 15 0 0 1 2105.5 845.5" stroke-linejoin="bevel" stroke-miterlimit="10" clip-path="url(#sEyaTPVLTPke)"/><path fill="none" stroke="rgb(51 51 51)" paint-order="fill" d="M 3105.5 845.5 A 15 15 0 0 1 3075.5 845.5 A 15 15 0 0 1 3105.5 845.5" stroke-linejoin="bevel" stroke-miterlimit="10" clip-path="url(#sEyaTPVLTPke)"/><path fill="none" stroke="rgb(51 51 51)" paint-order="fill" d="M 4105.5 845.5 A 15 15 0 0 1 4075.5 845.5 A 15 15 0 0 1 4105.5 845.5" stroke-linejoin="bevel" stroke-miterlimit="10" clip-path="url(#sEyaTPVLTPke)"/><path fill="none" stroke="rgb(51 51 51)" paint-order="fill" d="M 5105.5 845.5 A 15 15 0 0 1 5075.5 845.5 A 15 15 0 0 1 5105.5 845.5" stroke-linejoin="bevel" stroke-miterlimit="10" clip-path="url(#sEyaTPVLTPke)"/><path fill="none" stroke="rgb(51 51 51)" paint-order="fill" d="M 6105.5 845.5 A 15 15 0 0 1 6075.5 845.5 A 15 15 0 0 1 6105.5 845.5" stroke-linejoin="bevel" stroke-miterlimit="10" clip-path="url(#sEyaTPVLTPke)"/><path fill="none" stroke="rgb(51 51 51)" paint-order="fill" d="M 7105.5 845.5 A 15 15 0 0 1 7075.5 845.5 A 15 15 0 0 1 7105.5 845.5" stroke-linejoin="bevel" stroke-miterlimit="10" clip-path="url(#sEyaTPVLTPke)"/><path fill="none" stroke="rgb(51 51 51)" paint-order="fill" d="M 8105.5 845.5 A 15 15 0 0 1 8075.5 845.5 A 15 15 0 0 1 8105.5 845.5" stroke-linejoin="bevel" stroke-miterlimit="10" clip-path="url(#sEyaTPVLTPke)"/><path fill="none" stroke="rgb(51 51 51)" paint-order="fill" d="M 1105.5 1845.5 A 15 15 0 0 1 1075.5 1845.5 A 15 15 0 0 1 1105.5 1845.5" stroke-linejoin="bevel" stroke-miterlimit="10" clip-path="url(#sEyaTPVLTPke)"/><path fill="none" stroke="rgb(51 51 51)" paint-order="fill" d="M 2105.5 1845.5 A 15 15 0 0 1 2075.5 1845.5 A 15 15 0 0 1 2105.5 1845.5" stroke-linejoin="bevel" stroke-miterlimit="10" clip-path="url(#sEyaTPVLTPke)"/><path fill="none" stroke="rgb(51 51 51)" paint-order="fill" d="M 3105.5 1845.5 A 15 15 0 0 1 3075.5 1845.5 A 15 15 0 0 1 3105.5 1845.5" stroke-linejoin="bevel" stroke-miterlimit="10" clip-path="url(#sEyaTPVLTPke)"/><path fill="none" stroke="rgb(51 51 51)" paint-order="fill" d="M 4105.5 1845.5 A 15 15 0 0 1 4075.5 1845.5 A 15 15 0 0 1 4105.5 1845.5" stroke-linejoin="bevel" stroke-miterlimit="10" clip-path="url(#sEyaTPVLTPke)"/><path fill="none" stroke="rgb(51 51 51)" paint-order="fill" d="M 5105.5 1845.5 A 15 15 0 0 1 5075.5 1845.5 A 15 15 0 0 1 5105.5 1845.5" stroke-linejoin="bevel" stroke-miterlimit="10" clip-path="url(#sEyaTPVLTPke)"/><path fill="none" stroke="rgb(51 51 51)" paint-order="fill" d="M 6105.5 1845.5 A 15 15 0 0 1 6075.5 1845.5 A 15 15 0 0 1 6105.5 1845.5" stroke-linejoin="bevel" stroke-miterlimit="10" clip-path="url(#sEyaTPVLTPke)"/><path fill="none" stroke="rgb(51 51 51)" paint-order="fill" d="M 7105.5 1845.5 A 15 15 0 0 1 7075.5 1845.5 A 15 15 0 0 1 7105.5 1845.5" stroke-linejoin="bevel" stroke-miterlimit="10" clip-path="url(#sEyaTPVLTPke)"/><path fill="none" stroke="rgb(51 51 51)" paint-order="fill" d="M 8105.5 1845.5 A 15 15 0 0 1 8075.5 1845.5 A 15 15 0 0 1 8105.5 1845.5" stroke-linejoin="bevel" stroke-miterlimit="10" clip-path="url(#sEyaTPVLTPke)"/><path fill="none" stroke="rgb(51 51 51)" paint-order="fill" d="M 1105.5 2845.5 A 15 15 0 0 1 1075.5 2845.5 A 15 15 0 0 1 1105.5 2845.5" stroke-linejoin="bevel" stroke-miterlimit="10" clip-path="url(#sEyaTPVLTPke)"/><path fill="none" stroke="rgb(51 51 51)" paint-order="fill" d="M 2105.5 2845.5 A 15 15 0 0 1 2075.5 2845.5 A 15 15 0 0 1 2105.5 2845.5" stroke-linejoin="bevel" stroke-miterlimit="10" clip-path="url(#sEyaTPVLTPke)"/><path fill="none" stroke="rgb(51 51 51)" paint-order="fill" d="M 3105.5 2845.5 A 15 15 0 0 1 3075.5 2845.5 A 15 15 0 0 1 3105.5 2845.5" stroke-linejoin="bevel" stroke-miterlimit="10" clip-path="url(#sEyaTPVLTPke)"/><path fill="none" stroke="rgb(51 51 51)" paint-order="fill" d="M 4105.5 2845.5 A 15 15 0 0 1 4075.5 2845.5 A 15 15 0 0 1 4105.5 2845.5" stroke-linejoin="bevel" stroke-miterlimit="10" clip-path="url(#sEyaTPVLTPke)"/><path fill="none" stroke="rgb(51 51 51)" paint-order="fill" d="M 5105.5 2845.5 A 15 15 0 0 1 5075.5 2845.5 A 15 15 0 0 1 5105.5 2845.5" stroke-linejoin="bevel" stroke-miterlimit="10" clip-path="url(#sEyaTPVLTPke)"/><path fill="none" stroke="rgb(51 51 51)" paint-order="fill" d="M 6105.5 2845.5 A 15 15 0 0 1 6075.5 2845.5 A 15 15 0 0 1 6105.5 2845.5" stroke-linejoin="bevel" stroke-miterlimit="10" clip-path="url(#sEyaTPVLTPke)"/><path fill="none" stroke="rgb(51 51 51)" paint-order="fill" d="M 7105.5 2845.5 A 15 15 0 0 1 7075.5 2845.5 A 15 15 0 0 1 7105.5 2845.5" stroke-linejoin="bevel" stroke-miterlimit="10" clip-path="url(#sEyaTPVLTPke)"/><path fill="none" stroke="rgb(51 51 51)" paint-order="fill" d="M 8105.5 2845.5 A 15 15 0 0 1 8075.5 2845.5 A 15 15 0 0 1 8105.5 2845.5" stroke-linejoin="bevel" stroke-miterlimit="10" clip-path="url(#sEyaTPVLTPke)"/><path fill="none" stroke="rgb(51 51 51)" paint-order="fill" d="M 1105.5 1345.5 A 15 15 0 0 1 1075.5 1345.5 A 15 15 0 0 1 1105.5 1345.5" stroke-linejoin="bevel" stroke-miterlimit="10" clip-path="url(#DGGbarQxqbiJ)"/><path fill="none" stroke="rgb(51 51 51)" paint-order="fill" d="M 2105.5 1345.5 A 15 15 0 0 1 2075.5 1345.5 A 15 15 0 0 1 2105.5 1345.5" stroke-linejoin="bevel" stroke-miterlimit="10" clip-path="url(#DGGbarQxqbiJ)"/><path fill="none" stroke="rgb(51 51 51)" paint-order="fill" d="M 3105.5 1345.5 A 15 15 0 0 1 3075.5 1345.5 A 15 15 0 0 1 3105.5 1345.5" stroke-linejoin="bevel" stroke-miterlimit="10" clip-path="url(#DGGbarQxqbiJ)"/><path fill="none" stroke="rgb(51 51 51)" paint-order="fill" d="M 4105.5 1345.5 A 15 15 0 0 1 4075.5 1345.5 A 15 15 0 0 1 4105.5 1345.5" stroke-linejoin="bevel" stroke-miterlimit="10" clip-path="url(#DGGbarQxqbiJ)"/><path fill="none" stroke="rgb(51 51 51)" paint-order="fill" d="M 5105.5 1345.5 A 15 15 0 0 1 5075.5 1345.5 A 15 15 0 0 1 5105.5 1345.5" stroke-linejoin="bevel" stroke-miterlimit="10" clip-path="url(#DGGbarQxqbiJ)"/><path fill="none" stroke="rgb(51 51 51)" paint-order="fill" d="M 6105.5 1345.5 A 15 15 0 0 1 6075.5 1345.5 A 15 15 0 0 1 6105.5 1345.5" stroke-linejoin="bevel" stroke-miterlimit="10" clip-path="url(#DGGbarQxqbiJ)"/><path fill="none" stroke="rgb(51 51 51)" paint-order="fill" d="M 7105.5 1345.5 A 15 15 0 0 1 7075.5 1345.5 A 15 15 0 0 1 7105.5 1345.5" stroke-linejoin="bevel" stroke-miterlimit="10" clip-path="url(#DGGbarQxqbiJ)"/><path fill="none" stroke="rgb(51 51 51)" paint-order="fill" d="M 8105.5 1345.5 A 15 15 0 0 1 8075.5 1345.5 A 15 15 0 0 1 8105.5 1345.5" stroke-linejoin="bevel" stroke-miterlimit="10" clip-path="url(#DGGbarQxqbiJ)"/><path fill="none" stroke="rgb(51 51 51)" paint-order="fill" d="M 1105.5 2345.5 A 15 15 0 0 1 1075.5 2345.5 A 15 15 0 0 1 1105.5 2345.5" stroke-linejoin="bevel" stroke-miterlimit="10" clip-path="url(#DGGbarQxqbiJ)"/><path fill="none" stroke="rgb(51 51 51)" paint-order="fill" d="M 2105.5 2345.5 A 15 15 0 0 1 2075.5 2345.5 A 15 15 0 0 1 2105.5 2345.5" stroke-linejoin="bevel" stroke-miterlimit="10" clip-path="url(#DGGbarQxqbiJ)"/><path fill="none" stroke="rgb(51 51 51)" paint-order="fill" d="M 3105.5 2345.5 A 15 15 0 0 1 3075.5 2345.5 A 15 15 0 0 1 3105.5 2345.5" stroke-linejoin="bevel" stroke-miterlimit="10" clip-path="url(#DGGbarQxqbiJ)"/><path fill="none" stroke="rgb(51 51 51)" paint-order="fill" d="M 4105.5 2345.5 A 15 15 0 0 1 4075.5 2345.5 A 15 15 0 0 1 4105.5 2345.5" stroke-linejoin="bevel" stroke-miterlimit="10" clip-path="url(#DGGbarQxqbiJ)"/><path fill="none" stroke="rgb(51 51 51)" paint-order="fill" d="M 5105.5 2345.5 A 15 15 0 0 1 5075.5 2345.5 A 15 15 0 0 1 5105.5 2345.5" stroke-linejoin="bevel" stroke-miterlimit="10" clip-path="url(#DGGbarQxqbiJ)"/><path fill="none" stroke="rgb(51 51 51)" paint-order="fill" d="M 6105.5 2345.5 A 15 15 0 0 1 6075.5 2345.5 A 15 15 0 0 1 6105.5 2345.5" stroke-linejoin="bevel" stroke-miterlimit="10" clip-path="url(#DGGbarQxqbiJ)"/><path fill="none" stroke="rgb(51 51 51)" paint-order="fill" d="M 7105.5 2345.5 A 15 15 0 0 1 7075.5 2345.5 A 15 15 0 0 1 7105.5 2345.5" stroke-linejoin="bevel" stroke-miterlimit="10" clip-path="url(#DGGbarQxqbiJ)"/><path fill="none" stroke="rgb(51 51 51)" paint-order="fill" d="M 8105.5 2345.5 A 15 15 0 0 1 8075.5 2345.5 A 15 15 0 0 1 8105.5 2345.5" stroke-linejoin="bevel" stroke-miterlimit="10" clip-path="url(#DGGbarQxqbiJ)"/><path fill="none" stroke="rgb(51 51 51)" paint-order="fill" d="M 1105.5 3345.5 A 15 15 0 0 1 1075.5 3345.5 A 15 15 0 0 1 1105.5 3345.5" stroke-linejoin="bevel" stroke-miterlimit="10" clip-path="url(#DGGbarQxqbiJ)"/><path fill="none" stroke="rgb(51 51 51)" paint-order="fill" d="M 2105.5 3345.5 A 15 15 0 0 1 2075.5 3345.5 A 15 15 0 0 1 2105.5 3345.5" stroke-linejoin="bevel" stroke-miterlimit="10" clip-path="url(#DGGbarQxqbiJ)"/><path fill="none" stroke="rgb(51 51 51)" paint-order="fill" d="M 3105.5 3345.5 A 15 15 0 0 1 3075.5 3345.5 A 15 15 0 0 1 3105.5 3345.5" stroke-linejoin="bevel" stroke-miterlimit="10" clip-path="url(#DGGbarQxqbiJ)"/><path fill="none" stroke="rgb(51 51 51)" paint-order="fill" d="M 4105.5 3345.5 A 15 15 0 0 1 4075.5 3345.5 A 15 15 0 0 1 4105.5 3345.5" stroke-linejoin="bevel" stroke-miterlimit="10" clip-path="url(#DGGbarQxqbiJ)"/><path fill="none" stroke="rgb(51 51 51)" paint-order="fill" d="M 5105.5 3345.5 A 15 15 0 0 1 5075.5 3345.5 A 15 15 0 0 1 5105.5 3345.5" stroke-linejoin="bevel" stroke-miterlimit="10" clip-path="url(#DGGbarQxqbiJ)"/><path fill="none" stroke="rgb(51 51 51)" paint-order="fill" d="M 6105.5 3345.5 A 15 15 0 0 1 6075.5 3345.5 A 15 15 0 0 1 6105.5 3345.5" stroke-linejoin="bevel" stroke-miterlimit="10" clip-path="url(#DGGbarQxqbiJ)"/><path fill="none" stroke="rgb(51 51 51)" paint-order="fill" d="M 7105.5 3345.5 A 15 15 0 0 1 7075.5 3345.5 A 15 15 0 0 1 7105.5 3345.5" stroke-linejoin="bevel" stroke-miterlimit="10" clip-path="url(#DGGbarQxqbiJ)"/><path fill="none" stroke="rgb(51 51 51)" paint-order="fill" d="M 8105.5 3345.5 A 15 15 0 0 1 8075.5 3345.5 A 15 15 0 0 1 8105.5 3345.5" stroke-linejoin="bevel" stroke-miterlimit="10" clip-path="url(#DGGbarQxqbiJ)"/><path fill="none" stroke="rgb(51 51 51)" paint-order="fill" d="M 895.5 1095.5 A 15 15 0 0 1 865.5 1095.5 A 15 15 0 0 1 895.5 1095.5" stroke-linejoin="bevel" stroke-miterlimit="10" clip-path="url(#adaxdITwSQpx)"/><path fill="none" stroke="rgb(51 51 51)" paint-order="fill" d="M 1895.5 1095.5 A 15 15 0 0 1 1865.5 1095.5 A 15 15 0 0 1 1895.5 1095.5" stroke-linejoin="bevel" stroke-miterlimit="10" clip-path="url(#adaxdITwSQpx)"/><path fill="none" stroke="rgb(51 51 51)" paint-order="fill" d="M 2895.5 1095.5 A 15 15 0 0 1 2865.5 1095.5 A 15 15 0 0 1 2895.5 1095.5" stroke-linejoin="bevel" stroke-miterlimit="10" clip-path="url(#adaxdITwSQpx)"/><path fill="none" stroke="rgb(51 51 51)" paint-order="fill" d="M 3895.5 1095.5 A 15 15 0 0 1 3865.5 1095.5 A 15 15 0 0 1 3895.5 1095.5" stroke-linejoin="bevel" stroke-miterlimit="10" clip-path="url(#adaxdITwSQpx)"/><path fill="none" stroke="rgb(51 51 51)" paint-order="fill" d="M 4895.5 1095.5 A 15 15 0 0 1 4865.5 1095.5 A 15 15 0 0 1 4895.5 1095.5" stroke-linejoin="bevel" stroke-miterlimit="10" clip-path="url(#adaxdITwSQpx)"/><path fill="none" stroke="rgb(51 51 51)" paint-order="fill" d="M 5895.5 1095.5 A 15 15 0 0 1 5865.5 1095.5 A 15 15 0 0 1 5895.5 1095.5" stroke-linejoin="bevel" stroke-miterlimit="10" clip-path="url(#adaxdITwSQpx)"/><path fill="none" stroke="rgb(51 51 51)" paint-order="fill" d="M 6895.5 1095.5 A 15 15 0 0 1 6865.5 1095.5 A 15 15 0 0 1 6895.5 1095.5" stroke-linejoin="bevel" stroke-miterlimit="10" clip-path="url(#adaxdITwSQpx)"/><path fill="none" stroke="rgb(51 51 51)" paint-order="fill" d="M 7895.5 1095.5 A 15 15 0 0 1 7865.5 1095.5 A 15 15 0 0 1 7895.5 1095.5" stroke-linejoin="bevel" stroke-miterlimit="10" clip-path="url(#adaxdITwSQpx)"/><path fill="none" stroke="rgb(51 51 51)" paint-order="fill" d="M 895.5 2095.5 A 15 15 0 0 1 865.5 2095.5 A 15 15 0 0 1 895.5 2095.5" stroke-linejoin="bevel" stroke-miterlimit="10" clip-path="url(#adaxdITwSQpx)"/><path fill="none" stroke="rgb(51 51 51)" paint-order="fill" d="M 1895.5 2095.5 A 15 15 0 0 1 1865.5 2095.5 A 15 15 0 0 1 1895.5 2095.5" stroke-linejoin="bevel" stroke-miterlimit="10" clip-path="url(#adaxdITwSQpx)"/><path fill="none" stroke="rgb(51 51 51)" paint-order="fill" d="M 2895.5 2095.5 A 15 15 0 0 1 2865.5 2095.5 A 15 15 0 0 1 2895.5 2095.5" stroke-linejoin="bevel" stroke-miterlimit="10" clip-path="url(#adaxdITwSQpx)"/><path fill="none" stroke="rgb(51 51 51)" paint-order="fill" d="M 3895.5 2095.5 A 15 15 0 0 1 3865.5 2095.5 A 15 15 0 0 1 3895.5 2095.5" stroke-linejoin="bevel" stroke-miterlimit="10" clip-path="url(#adaxdITwSQpx)"/><path fill="none" stroke="rgb(51 51 51)" paint-order="fill" d="M 4895.5 2095.5 A 15 15 0 0 1 4865.5 2095.5 A 15 15 0 0 1 4895.5 2095.5" stroke-linejoin="bevel" stroke-miterlimit="10" clip-path="url(#adaxdITwSQpx)"/><path fill="none" stroke="rgb(51 51 51)" paint-order="fill" d="M 5895.5 2095.5 A 15 15 0 0 1 5865.5 2095.5 A 15 15 0 0 1 5895.5 2095.5" stroke-linejoin="bevel" stroke-miterlimit="10" clip-path="url(#adaxdITwSQpx)"/><path fill="none" stroke="rgb(51 51 51)" paint-order="fill" d="M 6895.5 2095.5 A 15 15 0 0 1 6865.5 2095.5 A 15 15 0 0 1 6895.5 2095.5" stroke-linejoin="bevel" stroke-miterlimit="10" clip-path="url(#adaxdITwSQpx)"/><path fill="none" stroke="rgb(51 51 51)" paint-order="fill" d="M 7895.5 2095.5 A 15 15 0 0 1 7865.5 2095.5 A 15 15 0 0 1 7895.5 2095.5" stroke-linejoin="bevel" stroke-miterlimit="10" clip-path="url(#adaxdITwSQpx)"/><path fill="none" stroke="rgb(51 51 51)" paint-order="fill" d="M 895.5 3095.5 A 15 15 0 0 1 865.5 3095.5 A 15 15 0 0 1 895.5 3095.5" stroke-linejoin="bevel" stroke-miterlimit="10" clip-path="url(#adaxdITwSQpx)"/><path fill="none" stroke="rgb(51 51 51)" paint-order="fill" d="M 1895.5 3095.5 A 15 15 0 0 1 1865.5 3095.5 A 15 15 0 0 1 1895.5 3095.5" stroke-linejoin="bevel" stroke-miterlimit="10" clip-path="url(#adaxdITwSQpx)"/><path fill="none" stroke="rgb(51 51 51)" paint-order="fill" d="M 2895.5 3095.5 A 15 15 0 0 1 2865.5 3095.5 A 15 15 0 0 1 2895.5 3095.5" stroke-linejoin="bevel" stroke-miterlimit="10" clip-path="url(#adaxdITwSQpx)"/><path fill="none" stroke="rgb(51 51 51)" paint-order="fill" d="M 3895.5 3095.5 A 15 15 0 0 1 3865.5 3095.5 A 15 15 0 0 1 3895.5 3095.5" stroke-linejoin="bevel" stroke-miterlimit="10" clip-path="url(#adaxdITwSQpx)"/><path fill="none" stroke="rgb(51 51 51)" paint-order="fill" d="M 4895.5 3095.5 A 15 15 0 0 1 4865.5 3095.5 A 15 15 0 0 1 4895.5 3095.5" stroke-linejoin="bevel" stroke-miterlimit="10" clip-path="url(#adaxdITwSQpx)"/><path fill="none" stroke="rgb(51 51 51)" paint-order="fill" d="M 5895.5 3095.5 A 15 15 0 0 1 5865.5 3095.5 A 15 15 0 0 1 5895.5 3095.5" stroke-linejoin="bevel" stroke-miterlimit="10" clip-path="url(#adaxdITwSQpx)"/><path fill="none" stroke="rgb(51 51 51)" paint-order="fill" d="M 6895.5 3095.5 A 15 15 0 0 1 6865.5 3095.5 A 15 15 0 0 1 6895.5 3095.5" stroke-linejoin="bevel" stroke-miterlimit="10" clip-path="url(#adaxdITwSQpx)"/><path fill="none" stroke="rgb(51 51 51)" paint-order="fill" d="M 7895.5 3095.5 A 15 15 0 0 1 7865.5 3095.5 A 15 15 0 0 1 7895.5 3095.5" stroke-linejoin="bevel" stroke-miterlimit="10" clip-path="url(#adaxdITwSQpx)"/><path fill="none" stroke="rgb(51 51 51)" paint-order="fill" d="M 1100.5 845.5 A 10 10 0 0 1 1080.5 845.5 A 10 10 0 0 1 1100.5 845.5" stroke-linejoin="bevel" stroke-miterlimit="10" clip-path="url(#vTKHWqVmTzAl)"/><path fill="none" stroke="rgb(51 51 51)" paint-order="fill" d="M 2100.5 845.5 A 10 10 0 0 1 2080.5 845.5 A 10 10 0 0 1 2100.5 845.5" stroke-linejoin="bevel" stroke-miterlimit="10" clip-path="url(#vTKHWqVmTzAl)"/><path fill="none" stroke="rgb(51 51 51)" paint-order="fill" d="M 3100.5 845.5 A 10 10 0 0 1 3080.5 845.5 A 10 10 0 0 1 3100.5 845.5" stroke-linejoin="bevel" stroke-miterlimit="10" clip-path="url(#vTKHWqVmTzAl)"/><path fill="none" stroke="rgb(51 51 51)" paint-order="fill" d="M 4100.5 845.5 A 10 10 0 0 1 4080.5 845.5 A 10 10 0 0 1 4100.5 845.5" stroke-linejoin="bevel" stroke-miterlimit="10" clip-path="url(#vTKHWqVmTzAl)"/><path fill="none" stroke="rgb(51 51 51)" paint-order="fill" d="M 5100.5 845.5 A 10 10 0 0 1 5080.5 845.5 A 10 10 0 0 1 5100.5 845.5" stroke-linejoin="bevel" stroke-miterlimit="10" clip-path="url(#vTKHWqVmTzAl)"/><path fill="none" stroke="rgb(51 51 51)" paint-order="fill" d="M 6100.5 845.5 A 10 10 0 0 1 6080.5 845.5 A 10 10 0 0 1 6100.5 845.5" stroke-linejoin="bevel" stroke-miterlimit="10" clip-path="url(#vTKHWqVmTzAl)"/><path fill="none" stroke="rgb(51 51 51)" paint-order="fill" d="M 7100.5 845.5 A 10 10 0 0 1 7080.5 845.5 A 10 10 0 0 1 7100.5 845.5" stroke-linejoin="bevel" stroke-miterlimit="10" clip-path="url(#vTKHWqVmTzAl)"/><path fill="none" stroke="rgb(51 51 51)" paint-order="fill" d="M 8100.5 845.5 A 10 10 0 0 1 8080.5 845.5 A 10 10 0 0 1 8100.5 845.5" stroke-linejoin="bevel" stroke-miterlimit="10" clip-path="url(#vTKHWqVmTzAl)"/><path fill="none" stroke="rgb(51 51 51)" paint-order="fill" d="M 1100.5 1845.5 A 10 10 0 0 1 1080.5 1845.5 A 10 10 0 0 1 1100.5 1845.5" stroke-linejoin="bevel" stroke-miterlimit="10" clip-path="url(#vTKHWqVmTzAl)"/><path fill="none" stroke="rgb(51 51 51)" paint-order="fill" d="M 2100.5 1845.5 A 10 10 0 0 1 2080.5 1845.5 A 10 10 0 0 1 2100.5 1845.5" stroke-linejoin="bevel" stroke-miterlimit="10" clip-path="url(#vTKHWqVmTzAl)"/><path fill="none" stroke="rgb(51 51 51)" paint-order="fill" d="M 3100.5 1845.5 A 10 10 0 0 1 3080.5 1845.5 A 10 10 0 0 1 3100.5 1845.5" stroke-linejoin="bevel" stroke-miterlimit="10" clip-path="url(#vTKHWqVmTzAl)"/><path fill="none" stroke="rgb(51 51 51)" paint-order="fill" d="M 4100.5 1845.5 A 10 10 0 0 1 4080.5 1845.5 A 10 10 0 0 1 4100.5 1845.5" stroke-linejoin="bevel" stroke-miterlimit="10" clip-path="url(#vTKHWqVmTzAl)"/><path fill="none" stroke="rgb(51 51 51)" paint-order="fill" d="M 5100.5 1845.5 A 10 10 0 0 1 5080.5 1845.5 A 10 10 0 0 1 5100.5 1845.5" stroke-linejoin="bevel" stroke-miterlimit="10" clip-path="url(#vTKHWqVmTzAl)"/><path fill="none" stroke="rgb(51 51 51)" paint-order="fill" d="M 6100.5 1845.5 A 10 10 0 0 1 6080.5 1845.5 A 10 10 0 0 1 6100.5 1845.5" stroke-linejoin="bevel" stroke-miterlimit="10" clip-path="url(#vTKHWqVmTzAl)"/><path fill="none" stroke="rgb(51 51 51)" paint-order="fill" d="M 7100.5 1845.5 A 10 10 0 0 1 7080.5 1845.5 A 10 10 0 0 1 7100.5 1845.5" stroke-linejoin="bevel" stroke-miterlimit="10" clip-path="url(#vTKHWqVmTzAl)"/><path fill="none" stroke="rgb(51 51 51)" paint-order="fill" d="M 8100.5 1845.5 A 10 10 0 0 1 8080.5 1845.5 A 10 10 0 0 1 8100.5 1845.5" stroke-linejoin="bevel" stroke-miterlimit="10" clip-path="url(#vTKHWqVmTzAl)"/><path fill="none" stroke="rgb(51 51 51)" paint-order="fill" d="M 1100.5 2845.5 A 10 10 0 0 1 1080.5 2845.5 A 10 10 0 0 1 1100.5 2845.5" stroke-linejoin="bevel" stroke-miterlimit="10" clip-path="url(#vTKHWqVmTzAl)"/><path fill="none" stroke="rgb(51 51 51)" paint-order="fill" d="M 2100.5 2845.5 A 10 10 0 0 1 2080.5 2845.5 A 10 10 0 0 1 2100.5 2845.5" stroke-linejoin="bevel" stroke-miterlimit="10" clip-path="url(#vTKHWqVmTzAl)"/><path fill="none" stroke="rgb(51 51 51)" paint-order="fill" d="M 3100.5 2845.5 A 10 10 0 0 1 3080.5 2845.5 A 10 10 0 0 1 3100.5 2845.5" stroke-linejoin="bevel" stroke-miterlimit="10" clip-path="url(#vTKHWqVmTzAl)"/><path fill="none" stroke="rgb(51 51 51)" paint-order="fill" d="M 4100.5 2845.5 A 10 10 0 0 1 4080.5 2845.5 A 10 10 0 0 1 4100.5 2845.5" stroke-linejoin="bevel" stroke-miterlimit="10" clip-path="url(#vTKHWqVmTzAl)"/><path fill="none" stroke="rgb(51 51 51)" paint-order="fill" d="M 5100.5 2845.5 A 10 10 0 0 1 5080.5 2845.5 A 10 10 0 0 1 5100.5 2845.5" stroke-linejoin="bevel" stroke-miterlimit="10" clip-path="url(#vTKHWqVmTzAl)"/><path fill="none" stroke="rgb(51 51 51)" paint-order="fill" d="M 6100.5 2845.5 A 10 10 0 0 1 6080.5 2845.5 A 10 10 0 0 1 6100.5 2845.5" stroke-linejoin="bevel" stroke-miterlimit="10" clip-path="url(#vTKHWqVmTzAl)"/><path fill="none" stroke="rgb(51 51 51)" paint-order="fill" d="M 7100.5 2845.5 A 10 10 0 0 1 7080.5 2845.5 A 10 10 0 0 1 7100.5 2845.5" stroke-linejoin="bevel" stroke-miterlimit="10" clip-path="url(#vTKHWqVmTzAl)"/><path fill="none" stroke="rgb(51 51 51)" paint-order="fill" d="M 8100.5 2845.5 A 10 10 0 0 1 8080.5 2845.5 A 10 10 0 0 1 8100.5 2845.5" stroke-linejoin="bevel" stroke-miterlimit="10" clip-path="url(#vTKHWqVmTzAl)"/><path fill="none" stroke="rgb(51 51 51)" paint-order="fill" d="M 1100.5 1345.5 A 10 10 0 0 1 1080.5 1345.5 A 10 10 0 0 1 1100.5 1345.5" stroke-linejoin="bevel" stroke-miterlimit="10" clip-path="url(#HQRNEsCaXxup)"/><path fill="none" stroke="rgb(51 51 51)" paint-order="fill" d="M 2100.5 1345.5 A 10 10 0 0 1 2080.5 1345.5 A 10 10 0 0 1 2100.5 1345.5" stroke-linejoin="bevel" stroke-miterlimit="10" clip-path="url(#HQRNEsCaXxup)"/><path fill="none" stroke="rgb(51 51 51)" paint-order="fill" d="M 3100.5 1345.5 A 10 10 0 0 1 3080.5 1345.5 A 10 10 0 0 1 3100.5 1345.5" stroke-linejoin="bevel" stroke-miterlimit="10" clip-path="url(#HQRNEsCaXxup)"/><path fill="none" stroke="rgb(51 51 51)" paint-order="fill" d="M 4100.5 1345.5 A 10 10 0 0 1 4080.5 1345.5 A 10 10 0 0 1 4100.5 1345.5" stroke-linejoin="bevel" stroke-miterlimit="10" clip-path="url(#HQRNEsCaXxup)"/><path fill="none" stroke="rgb(51 51 51)" paint-order="fill" d="M 5100.5 1345.5 A 10 10 0 0 1 5080.5 1345.5 A 10 10 0 0 1 5100.5 1345.5" stroke-linejoin="bevel" stroke-miterlimit="10" clip-path="url(#HQRNEsCaXxup)"/><path fill="none" stroke="rgb(51 51 51)" paint-order="fill" d="M 6100.5 1345.5 A 10 10 0 0 1 6080.5 1345.5 A 10 10 0 0 1 6100.5 1345.5" stroke-linejoin="bevel" stroke-miterlimit="10" clip-path="url(#HQRNEsCaXxup)"/><path fill="none" stroke="rgb(51 51 51)" paint-order="fill" d="M 7100.5 1345.5 A 10 10 0 0 1 7080.5 1345.5 A 10 10 0 0 1 7100.5 1345.5" stroke-linejoin="bevel" stroke-miterlimit="10" clip-path="url(#HQRNEsCaXxup)"/><path fill="none" stroke="rgb(51 51 51)" paint-order="fill" d="M 8100.5 1345.5 A 10 10 0 0 1 8080.5 1345.5 A 10 10 0 0 1 8100.5 1345.5" stroke-linejoin="bevel" stroke-miterlimit="10" clip-path="url(#HQRNEsCaXxup)"/><path fill="none" stroke="rgb(51 51 51)" paint-order="fill" d="M 1100.5 2345.5 A 10 10 0 0 1 1080.5 2345.5 A 10 10 0 0 1 1100.5 2345.5" stroke-linejoin="bevel" stroke-miterlimit="10" clip-path="url(#HQRNEsCaXxup)"/><path fill="none" stroke="rgb(51 51 51)" paint-order="fill" d="M 2100.5 2345.5 A 10 10 0 0 1 2080.5 2345.5 A 10 10 0 0 1 2100.5 2345.5" stroke-linejoin="bevel" stroke-miterlimit="10" clip-path="url(#HQRNEsCaXxup)"/><path fill="none" stroke="rgb(51 51 51)" paint-order="fill" d="M 3100.5 2345.5 A 10 10 0 0 1 3080.5 2345.5 A 10 10 0 0 1 3100.5 2345.5" stroke-linejoin="bevel" stroke-miterlimit="10" clip-path="url(#HQRNEsCaXxup)"/><path fill="none" stroke="rgb(51 51 51)" paint-order="fill" d="M 4100.5 2345.5 A 10 10 0 0 1 4080.5 2345.5 A 10 10 0 0 1 4100.5 2345.5" stroke-linejoin="bevel" stroke-miterlimit="10" clip-path="url(#HQRNEsCaXxup)"/><path fill="none" stroke="rgb(51 51 51)" paint-order="fill" d="M 5100.5 2345.5 A 10 10 0 0 1 5080.5 2345.5 A 10 10 0 0 1 5100.5 2345.5" stroke-linejoin="bevel" stroke-miterlimit="10" clip-path="url(#HQRNEsCaXxup)"/><path fill="none" stroke="rgb(51 51 51)" paint-order="fill" d="M 6100.5 2345.5 A 10 10 0 0 1 6080.5 2345.5 A 10 10 0 0 1 6100.5 2345.5" stroke-linejoin="bevel" stroke-miterlimit="10" clip-path="url(#HQRNEsCaXxup)"/><path fill="none" stroke="rgb(51 51 51)" paint-order="fill" d="M 7100.5 2345.5 A 10 10 0 0 1 7080.5 2345.5 A 10 10 0 0 1 7100.5 2345.5" stroke-linejoin="bevel" stroke-miterlimit="10" clip-path="url(#HQRNEsCaXxup)"/><path fill="none" stroke="rgb(51 51 51)" paint-order="fill" d="M 8100.5 2345.5 A 10 10 0 0 1 8080.5 2345.5 A 10 10 0 0 1 8100.5 2345.5" stroke-linejoin="bevel" stroke-miterlimit="10" clip-path="url(#HQRNEsCaXxup)"/><path fill="none" stroke="rgb(51 51 51)" paint-order="fill" d="M 1100.5 3345.5 A 10 10 0 0 1 1080.5 3345.5 A 10 10 0 0 1 1100.5 3345.5" stroke-linejoin="bevel" stroke-miterlimit="10" clip-path="url(#HQRNEsCaXxup)"/><path fill="none" stroke="rgb(51 51 51)" paint-order="fill" d="M 2100.5 3345.5 A 10 10 0 0 1 2080.5 3345.5 A 10 10 0 0 1 2100.5 3345.5" stroke-linejoin="bevel" stroke-miterlimit="10" clip-path="url(#HQRNEsCaXxup)"/><path fill="none" stroke="rgb(51 51 51)" paint-order="fill" d="M 3100.5 3345.5 A 10 10 0 0 1 3080.5 3345.5 A 10 10 0 0 1 3100.5 3345.5" stroke-linejoin="bevel" stroke-miterlimit="10" clip-path="url(#HQRNEsCaXxup)"/><path fill="none" stroke="rgb(51 51 51)" paint-order="fill" d="M 4100.5 3345.5 A 10 10 0 0 1 4080.5 3345.5 A 10 10 0 0 1 4100.5 3345.5" stroke-linejoin="bevel" stroke-miterlimit="10" clip-path="url(#HQRNEsCaXxup)"/><path fill="none" stroke="rgb(51 51 51)" paint-order="fill" d="M 5100.5 3345.5 A 10 10 0 0 1 5080.5 3345.5 A 10 10 0 0 1 5100.5 3345.5" stroke-linejoin="bevel" stroke-miterlimit="10" clip-path="url(#HQRNEsCaXxup)"/><path fill="none" stroke="rgb(51 51 51)" paint-order="fill" d="M 6100.5 3345.5 A 10 10 0 0 1 6080.5 3345.5 A 10 10 0 0 1 6100.5 3345.5" stroke-linejoin="bevel" stroke-miterlimit="10" clip-path="url(#HQRNEsCaXxup)"/><path fill="none" stroke="rgb(51 51 51)" paint-order="fill" d="M 7100.5 3345.5 A 10 10 0 0 1 7080.5 3345.5 A 10 10 0 0 1 7100.5 3345.5" stroke-linejoin="bevel" stroke-miterlimit="10" clip-path="url(#HQRNEsCaXxup)"/><path fill="none" stroke="rgb(51 51 51)" paint-order="fill" d="M 8100.5 3345.5 A 10 10 0 0 1 8080.5 3345.5 A 10 10 0 0 1 8100.5 3345.5" stroke-linejoin="bevel" stroke-miterlimit="10" clip-path="url(#HQRNEsCaXxup)"/><path fill="none" stroke="rgb(51 51 51)" paint-order="fill" d="M 890.5 1095.5 A 10 10 0 0 1 870.5 1095.5 A 10 10 0 0 1 890.5 1095.5" stroke-linejoin="bevel" stroke-miterlimit="10" clip-path="url(#OrnznowTtTfO)"/><path fill="none" stroke="rgb(51 51 51)" paint-order="fill" d="M 1890.5 1095.5 A 10 10 0 0 1 1870.5 1095.5 A 10 10 0 0 1 1890.5 1095.5" stroke-linejoin="bevel" stroke-miterlimit="10" clip-path="url(#OrnznowTtTfO)"/><path fill="none" stroke="rgb(51 51 51)" paint-order="fill" d="M 2890.5 1095.5 A 10 10 0 0 1 2870.5 1095.5 A 10 10 0 0 1 2890.5 1095.5" stroke-linejoin="bevel" stroke-miterlimit="10" clip-path="url(#OrnznowTtTfO)"/><path fill="none" stroke="rgb(51 51 51)" paint-order="fill" d="M 3890.5 1095.5 A 10 10 0 0 1 3870.5 1095.5 A 10 10 0 0 1 3890.5 1095.5" stroke-linejoin="bevel" stroke-miterlimit="10" clip-path="url(#OrnznowTtTfO)"/><path fill="none" stroke="rgb(51 51 51)" paint-order="fill" d="M 4890.5 1095.5 A 10 10 0 0 1 4870.5 1095.5 A 10 10 0 0 1 4890.5 1095.5" stroke-linejoin="bevel" stroke-miterlimit="10" clip-path="url(#OrnznowTtTfO)"/><path fill="none" stroke="rgb(51 51 51)" paint-order="fill" d="M 5890.5 1095.5 A 10 10 0 0 1 5870.5 1095.5 A 10 10 0 0 1 5890.5 1095.5" stroke-linejoin="bevel" stroke-miterlimit="10" clip-path="url(#OrnznowTtTfO)"/><path fill="none" stroke="rgb(51 51 51)" paint-order="fill" d="M 6890.5 1095.5 A 10 10 0 0 1 6870.5 1095.5 A 10 10 0 0 1 6890.5 1095.5" stroke-linejoin="bevel" stroke-miterlimit="10" clip-path="url(#OrnznowTtTfO)"/><path fill="none" stroke="rgb(51 51 51)" paint-order="fill" d="M 7890.5 1095.5 A 10 10 0 0 1 7870.5 1095.5 A 10 10 0 0 1 7890.5 1095.5" stroke-linejoin="bevel" stroke-miterlimit="10" clip-path="url(#OrnznowTtTfO)"/><path fill="none" stroke="rgb(51 51 51)" paint-order="fill" d="M 890.5 2095.5 A 10 10 0 0 1 870.5 2095.5 A 10 10 0 0 1 890.5 2095.5" stroke-linejoin="bevel" stroke-miterlimit="10" clip-path="url(#OrnznowTtTfO)"/><path fill="none" stroke="rgb(51 51 51)" paint-order="fill" d="M 1890.5 2095.5 A 10 10 0 0 1 1870.5 2095.5 A 10 10 0 0 1 1890.5 2095.5" stroke-linejoin="bevel" stroke-miterlimit="10" clip-path="url(#OrnznowTtTfO)"/><path fill="none" stroke="rgb(51 51 51)" paint-order="fill" d="M 2890.5 2095.5 A 10 10 0 0 1 2870.5 2095.5 A 10 10 0 0 1 2890.5 2095.5" stroke-linejoin="bevel" stroke-miterlimit="10" clip-path="url(#OrnznowTtTfO)"/><path fill="none" stroke="rgb(51 51 51)" paint-order="fill" d="M 3890.5 2095.5 A 10 10 0 0 1 3870.5 2095.5 A 10 10 0 0 1 3890.5 2095.5" stroke-linejoin="bevel" stroke-miterlimit="10" clip-path="url(#OrnznowTtTfO)"/><path fill="none" stroke="rgb(51 51 51)" paint-order="fill" d="M 4890.5 2095.5 A 10 10 0 0 1 4870.5 2095.5 A 10 10 0 0 1 4890.5 2095.5" stroke-linejoin="bevel" stroke-miterlimit="10" clip-path="url(#OrnznowTtTfO)"/><path fill="none" stroke="rgb(51 51 51)" paint-order="fill" d="M 5890.5 2095.5 A 10 10 0 0 1 5870.5 2095.5 A 10 10 0 0 1 5890.5 2095.5" stroke-linejoin="bevel" stroke-miterlimit="10" clip-path="url(#OrnznowTtTfO)"/><path fill="none" stroke="rgb(51 51 51)" paint-order="fill" d="M 6890.5 2095.5 A 10 10 0 0 1 6870.5 2095.5 A 10 10 0 0 1 6890.5 2095.5" stroke-linejoin="bevel" stroke-miterlimit="10" clip-path="url(#OrnznowTtTfO)"/><path fill="none" stroke="rgb(51 51 51)" paint-order="fill" d="M 7890.5 2095.5 A 10 10 0 0 1 7870.5 2095.5 A 10 10 0 0 1 7890.5 2095.5" stroke-linejoin="bevel" stroke-miterlimit="10" clip-path="url(#OrnznowTtTfO)"/><path fill="none" stroke="rgb(51 51 51)" paint-order="fill" d="M 890.5 3095.5 A 10 10 0 0 1 870.5 3095.5 A 10 10 0 0 1 890.5 3095.5" stroke-linejoin="bevel" stroke-miterlimit="10" clip-path="url(#OrnznowTtTfO)"/><path fill="none" stroke="rgb(51 51 51)" paint-order="fill" d="M 1890.5 3095.5 A 10 10 0 0 1 1870.5 3095.5 A 10 10 0 0 1 1890.5 3095.5" stroke-linejoin="bevel" stroke-miterlimit="10" clip-path="url(#OrnznowTtTfO)"/><path fill="none" stroke="rgb(51 51 51)" paint-order="fill" d="M 2890.5 3095.5 A 10 10 0 0 1 2870.5 3095.5 A 10 10 0 0 1 2890.5 3095.5" stroke-linejoin="bevel" stroke-miterlimit="10" clip-path="url(#OrnznowTtTfO)"/><path fill="none" stroke="rgb(51 51 51)" paint-order="fill" d="M 3890.5 3095.5 A 10 10 0 0 1 3870.5 3095.5 A 10 10 0 0 1 3890.5 3095.5" stroke-linejoin="bevel" stroke-miterlimit="10" clip-path="url(#OrnznowTtTfO)"/><path fill="none" stroke="rgb(51 51 51)" paint-order="fill" d="M 4890.5 3095.5 A 10 10 0 0 1 4870.5 3095.5 A 10 10 0 0 1 4890.5 3095.5" stroke-linejoin="bevel" stroke-miterlimit="10" clip-path="url(#OrnznowTtTfO)"/><path fill="none" stroke="rgb(51 51 51)" paint-order="fill" d="M 5890.5 3095.5 A 10 10 0 0 1 5870.5 3095.5 A 10 10 0 0 1 5890.5 3095.5" stroke-linejoin="bevel" stroke-miterlimit="10" clip-path="url(#OrnznowTtTfO)"/><path fill="none" stroke="rgb(51 51 51)" paint-order="fill" d="M 6890.5 3095.5 A 10 10 0 0 1 6870.5 3095.5 A 10 10 0 0 1 6890.5 3095.5" stroke-linejoin="bevel" stroke-miterlimit="10" clip-path="url(#OrnznowTtTfO)"/><path fill="none" stroke="rgb(51 51 51)" paint-order="fill" d="M 7890.5 3095.5 A 10 10 0 0 1 7870.5 3095.5 A 10 10 0 0 1 7890.5 3095.5" stroke-linejoin="bevel" stroke-miterlimit="10" clip-path="url(#OrnznowTtTfO)"/><path fill="none" stroke="rgb(0 0 0)" paint-order="fill" d="M 843 798 L 1158 798 L 1158 1393 L 843 1393 L 843 798 Z" stroke-linejoin="bevel" stroke-miterlimit="10" clip-path="url(#xXasdRxRohFT)"/><path fill="none" stroke="rgb(0 0 0)" paint-order="fill" d="M 1843 798 L 2158 798 L 2158 1393 L 1843 1393 L 1843 798 Z" stroke-linejoin="bevel" stroke-miterlimit="10" clip-path="url(#xXasdRxRohFT)"/><path fill="none" stroke="rgb(0 0 0)" paint-order="fill" d="M 2843 798 L 3158 798 L 3158 1393 L 2843 1393 L 2843 798 Z" stroke-linejoin="bevel" stroke-miterlimit="10" clip-path="url(#xXasdRxRohFT)"/><path fill="none" stroke="rgb(0 0 0)" paint-order="fill" d="M 3843 798 L 4158 798 L 4158 1393 L 3843 1393 L 3843 798 Z" stroke-linejoin="bevel" stroke-miterlimit="10" clip-path="url(#xXasdRxRohFT)"/><path fill="none" stroke="rgb(0 0 0)" paint-order="fill" d="M 4843 798 L 5158 798 L 5158 1393 L 4843 1393 L 4843 798 Z" stroke-linejoin="bevel" stroke-miterlimit="10" clip-path="url(#xXasdRxRohFT)"/><path fill="none" stroke="rgb(0 0 0)" paint-order="fill" d="M 5843 798 L 6158 798 L 6158 1393 L 5843 1393 L 5843 798 Z" stroke-linejoin="bevel" stroke-miterlimit="10" clip-path="url(#xXasdRxRohFT)"/><path fill="none" stroke="rgb(0 0 0)" paint-order="fill" d="M 6843 798 L 7158 798 L 7158 1393 L 6843 1393 L 6843 798 Z" stroke-linejoin="bevel" stroke-miterlimit="10" clip-path="url(#xXasdRxRohFT)"/><path fill="none" stroke="rgb(0 0 0)" paint-order="fill" d="M 7843 798 L 8158 798 L 8158 1393 L 7843 1393 L 7843 798 Z" stroke-linejoin="bevel" stroke-miterlimit="10" clip-path="url(#xXasdRxRohFT)"/><path fill="none" stroke="rgb(0 0 0)" paint-order="fill" d="M 843 1798 L 1158 1798 L 1158 2393 L 843 2393 L 843 1798 Z" stroke-linejoin="bevel" stroke-miterlimit="10" clip-path="url(#xXasdRxRohFT)"/><path fill="none" stroke="rgb(0 0 0)" paint-order="fill" d="M 1843 1798 L 2158 1798 L 2158 2393 L 1843 2393 L 1843 1798 Z" stroke-linejoin="bevel" stroke-miterlimit="10" clip-path="url(#xXasdRxRohFT)"/><path fill="none" stroke="rgb(0 0 0)" paint-order="fill" d="M 2843 1798 L 3158 1798 L 3158 2393 L 2843 2393 L 2843 1798 Z" stroke-linejoin="bevel" stroke-miterlimit="10" clip-path="url(#xXasdRxRohFT)"/><path fill="none" stroke="rgb(0 0 0)" paint-order="fill" d="M 3843 1798 L 4158 1798 L 4158 2393 L 3843 2393 L 3843 1798 Z" stroke-linejoin="bevel" stroke-miterlimit="10" clip-path="url(#xXasdRxRohFT)"/><path fill="none" stroke="rgb(0 0 0)" paint-order="fill" d="M 4843 1798 L 5158 1798 L 5158 2393 L 4843 2393 L 4843 1798 Z" stroke-linejoin="bevel" stroke-miterlimit="10" clip-path="url(#xXasdRxRohFT)"/><path fill="none" stroke="rgb(0 0 0)" paint-order="fill" d="M 5843 1798 L 6158 1798 L 6158 2393 L 5843 2393 L 5843 1798 Z" stroke-linejoin="bevel" stroke-miterlimit="10" clip-path="url(#xXasdRxRohFT)"/><path fill="none" stroke="rgb(0 0 0)" paint-order="fill" d="M 6843 1798 L 7158 1798 L 7158 2393 L 6843 2393 L 6843 1798 Z" stroke-linejoin="bevel" stroke-miterlimit="10" clip-path="url(#xXasdRxRohFT)"/><path fill="none" stroke="rgb(0 0 0)" paint-order="fill" d="M 7843 1798 L 8158 1798 L 8158 2393 L 7843 2393 L 7843 1798 Z" stroke-linejoin="bevel" stroke-miterlimit="10" clip-path="url(#xXasdRxRohFT)"/><path fill="none" stroke="rgb(0 0 0)" paint-order="fill" d="M 843 2798 L 1158 2798 L 1158 3393 L 843 3393 L 843 2798 Z" stroke-linejoin="bevel" stroke-miterlimit="10" clip-path="url(#xXasdRxRohFT)"/><path fill="none" stroke="rgb(0 0 0)" paint-order="fill" d="M 1843 2798 L 2158 2798 L 2158 3393 L 1843 3393 L 1843 2798 Z" stroke-linejoin="bevel" stroke-miterlimit="10" clip-path="url(#xXasdRxRohFT)"/><path fill="none" stroke="rgb(0 0 0)" paint-order="fill" d="M 2843 2798 L 3158 2798 L 3158 3393 L 2843 3393 L 2843 2798 Z" stroke-linejoin="bevel" stroke-miterlimit="10" clip-path="url(#xXasdRxRohFT)"/><path fill="none" stroke="rgb(0 0 0)" paint-order="fill" d="M 3843 2798 L 4158 2798 L 4158 3393 L 3843 3393 L 3843 2798 Z" stroke-linejoin="bevel" stroke-miterlimit="10" clip-path="url(#xXasdRxRohFT)"/><path fill="none" stroke="rgb(0 0 0)" paint-order="fill" d="M 4843 2798 L 5158 2798 L 5158 3393 L 4843 3393 L 4843 2798 Z" stroke-linejoin="bevel" stroke-miterlimit="10" clip-path="url(#xXasdRxRohFT)"/><path fill="none" stroke="rgb(0 0 0)" paint-order="fill" d="M 5843 2798 L 6158 2798 L 6158 3393 L 5843 3393 L 5843 2798 Z" stroke-linejoin="bevel" stroke-miterlimit="10" clip-path="url(#xXasdRxRohFT)"/><path fill="none" stroke="rgb(0 0 0)" paint-order="fill" d="M 6843 2798 L 7158 2798 L 7158 3393 L 6843 3393 L 6843 2798 Z" stroke-linejoin="bevel" stroke-miterlimit="10" clip-path="url(#xXasdRxRohFT)"/><path fill="none" stroke="rgb(0 0 0)" paint-order="fill" d="M 7843 2798 L 8158 2798 L 8158 3393 L 7843 3393 L 7843 2798 Z" stroke-linejoin="bevel" stroke-miterlimit="10" clip-path="url(#xXasdRxRohFT)"/></svg>